<?xml version="1.0" encoding="UTF-8" standalone="no"?>
<svg
   xmlns:dc="http://purl.org/dc/elements/1.1/"
   xmlns:cc="http://creativecommons.org/ns#"
   xmlns:rdf="http://www.w3.org/1999/02/22-rdf-syntax-ns#"
   xmlns:svg="http://www.w3.org/2000/svg"
   xmlns="http://www.w3.org/2000/svg"
   version="1.1"
   id="svg4425"
   viewBox="0 0 396.91487 345.46365"
   height="97.49752mm"
   width="112.0182mm">
  <defs
     id="defs4427" />
  <metadata
     id="metadata4430">
    <rdf:RDF>
      <cc:Work
         rdf:about="">
        <dc:format>image/svg+xml</dc:format>
        <dc:type
           rdf:resource="http://purl.org/dc/dcmitype/StillImage" />
        <dc:title></dc:title>
      </cc:Work>
    </rdf:RDF>
  </metadata>
  <g
     transform="translate(-321.54257,-248.2018)"
     id="layer1">
    <g
       id="g4350"
       transform="matrix(1.25,0,0,-1.25,52.472689,1262.0511)">
      <g
         id="g4173"
         transform="translate(507.7393,684.4199)">
        <path
           d="m 0,0 c -1.872,0.959 -3.78,1.868 -5.713,2.741 0.211,4.863 0.044,10.632 -2.381,14.562 0.173,2.555 0.404,5.121 0.698,7.677 1.749,15.168 -45.633,48.257 -65.708,65.668 -20.073,17.413 -46.042,36.51 -53.032,35.467 -6.99,-1.043 -33.63,-6.869 -54.897,-22.736 -20.99,-15.662 -37.559,-20.883 -58.279,-35.241 -20.722,-14.359 -26.994,-18.466 -27.41,-21.19 -0.41,-2.692 1.559,-14.725 2.303,-21.528 -17.801,-18.455 -46.922,-81.522 -2.799,-90.372 50.656,-10.161 13.454,-34.378 65.778,-25.405 8.735,1.498 13.179,1.236 16.412,-5.049 7.217,-4.751 10.519,-14.288 11.956,-22.734 0.997,-5.862 1.356,-11.813 1.055,-17.755 6.72,-10.231 18.3,-14.843 40.097,-5.027 35.358,15.926 13.143,35.334 38.113,47.348 24.971,12.013 46.851,2.943 57.978,25.015 C -24.701,-46.485 66.368,-34.041 0,0"
           style="fill:#efd275;fill-opacity:1;fill-rule:nonzero;stroke:none"
           id="path4175" />
      </g>
      <g
         id="g4177"
         transform="translate(507.7393,684.4199)">
        <path
           d="m 0,0 c -1.872,0.959 -3.78,1.868 -5.713,2.741 0.211,4.863 0.044,10.632 -2.381,14.562 0.173,2.555 0.404,5.121 0.698,7.677 1.749,15.168 -45.633,48.257 -65.708,65.668 -20.073,17.413 -46.042,36.51 -53.032,35.467 -6.99,-1.043 -33.63,-6.869 -54.897,-22.736 -20.99,-15.662 -37.559,-20.883 -58.279,-35.241 -20.722,-14.359 -26.994,-18.466 -27.41,-21.19 -0.41,-2.692 1.559,-14.725 2.303,-21.528 -17.801,-18.455 -46.922,-81.522 -2.799,-90.372 50.656,-10.161 13.454,-34.378 65.778,-25.405 8.735,1.498 13.179,1.236 16.412,-5.049 7.217,-4.751 10.519,-14.288 11.956,-22.734 0.997,-5.862 1.356,-11.813 1.055,-17.755 6.72,-10.231 18.3,-14.843 40.097,-5.027 35.358,15.926 13.143,35.334 38.113,47.348 24.971,12.013 46.851,2.943 57.978,25.015 C -24.701,-46.485 66.368,-34.041 0,0 Z"
           style="fill:none;stroke:#4c0e0b;stroke-width:1;stroke-linecap:butt;stroke-linejoin:miter;stroke-miterlimit:10;stroke-dasharray:none;stroke-opacity:1"
           id="path4179" />
      </g>
      <g
         id="g4181"
         transform="translate(374.1035,623.4102)">
        <path
           d="M 0,0 C -4.52,1.542 -6.814,4.391 -8.171,7.84 -8.313,7.932 -8.463,8.013 -8.6,8.11 -8.773,8.033 -8.943,7.953 -9.118,7.877 -9.216,8.182 -9.33,8.482 -9.442,8.783 c -1.367,1.207 -2.443,2.809 -3.068,4.9 -0.107,0.359 -0.156,0.729 -0.168,1.099 -3.037,4.243 -7.272,7.818 -11.655,10.186 -3.47,1.874 -7.345,3.327 -11.396,4.303 -0.404,0.264 -0.81,0.529 -1.212,0.791 -14.577,9.526 -28.731,22.988 -45.57,28.608 -3.198,4.226 -7.03,8.164 -11.375,11.236 -1.382,1.591 -2.804,3.134 -4.181,4.652 -3.968,4.372 -8.818,9.213 -14.417,11.661 -1.754,1.875 -3.512,3.733 -4.838,5.735 -0.033,0.052 -3.112,2.011 -3.149,2.058 0.304,-4.073 3.42,-11.25 1.155,-14.785 -0.268,-0.778 -0.53,-1.581 -0.76,-2.447 -0.09,-0.339 -0.204,-0.659 -0.303,-0.993 -2.189,-3.197 -4.023,-6.543 -6.98,-9.359 -1.87,-1.782 -4.694,-3.313 -6.852,-5.201 -0.353,0.599 -0.37,1.347 0.265,1.98 3.758,3.75 8.078,11.971 6.454,17.559 -1.172,4.03 -0.713,8.667 -0.201,13.005 -1.724,2.223 -3.376,4.499 -4.909,6.862 0.553,-4.611 1.389,-10.276 1.819,-14.203 -17.801,-18.455 -46.922,-81.522 -2.799,-90.372 50.656,-10.162 13.454,-34.378 65.777,-25.406 8.736,1.498 13.18,1.237 16.412,-5.048 7.218,-4.751 10.52,-14.289 11.956,-22.734 0.998,-5.862 1.357,-11.813 1.056,-17.755 2.585,-3.933 5.902,-7.02 10.231,-8.787 -2.032,3.943 -2.537,8.628 -0.865,13.119 2.958,7.942 10.564,11.896 17.681,15.608 -0.747,0.635 -1.434,1.41 -2.033,2.355 -2.252,3.551 -2.787,7.649 -1.307,11.622 0.769,2.066 2.056,4.214 3.773,5.777 0.788,2.199 1.825,4.379 2.901,6.484 -6.116,9.35 0.5,18.805 9.337,25.355 0.081,0.262 0.157,0.528 0.241,0.788 0.212,0.654 0.416,1.335 0.623,2.006 C 1.432,-0.418 0.689,-0.236 0,0"
           style="fill:#eab64e;fill-opacity:1;fill-rule:nonzero;stroke:none"
           id="path4183" />
      </g>
      <g
         id="g4185"
         transform="translate(506.1875,668.1797)">
        <path
           d="m 0,0 c -2.796,0.118 -2.515,5.336 -2.867,7.299 -0.153,1.252 -0.358,2.488 -0.6,3.717 -1.534,10.767 0,22.175 0.296,34.61 0.339,14.198 -108.208,98.145 -121.413,96.729 -7.027,-0.753 -33.63,-6.869 -54.897,-22.736 -20.991,-15.662 -37.559,-20.883 -58.28,-35.241 -20.721,-14.358 -26.993,-18.466 -27.409,-21.19 -0.416,-2.723 1.994,-18.626 2.707,-25.294 0.184,-1.708 0.17,-3.552 0.002,-5.492 -0.508,-1.587 -0.785,-3.259 -0.872,-4.869 -0.234,-4.363 -3.202,-8.209 -5.412,-11.777 -0.389,-0.627 0.421,-1.364 0.983,-0.853 3.228,2.927 5.533,6.845 8.055,10.371 2.094,2.927 1.522,5.112 2.187,10.17 0.139,5.703 -1.378,11.058 -1.242,16.949 0.174,7.504 -0.388,9.722 3.805,13.101 4.195,3.377 42.443,23.093 56.637,33.4 14.193,10.307 62.635,37.03 73.748,36.592 11.113,-0.437 51.342,-34.595 58.902,-38.341 5.918,-2.935 36.042,-31.42 49.406,-44.405 7.123,-6.919 8.47,-11.341 9.307,-17.22 1.593,-11.19 0.997,-29.27 -0.601,-36.674 0.03,-0.231 2.044,-2.912 2.038,-3.151 -0.048,-1.951 -3.457,-3.781 -4.439,-5.504 -1.939,-3.396 -24.919,-15.123 -30.197,-17.855 -3.307,-1.712 -5.94,-2.652 -9.256,-4.482 -2.072,-1.02 -2.776,-3.471 1.199,-1.405 4.41,2 9.29,4.446 12.136,5.606 3.128,1.275 6.116,2.89 9.106,4.461 3.412,1.793 6.976,2.939 10.48,4.521 5.351,2.414 10.907,5.554 14.488,10.318 C 0.271,-5.619 11.472,-1.971 0,0"
           style="fill:#4c0e0b;fill-opacity:1;fill-rule:nonzero;stroke:none"
           id="path4187" />
      </g>
      <g
         id="g4189"
         transform="translate(529.1475,671.6211)">
        <path
           d="m 0,0 c -2.241,3.602 -6.044,6.636 -9.771,8.555 -0.897,0.461 -1.806,0.832 -2.727,1.168 -1.94,1.42 -4.388,2.277 -6.485,3.32 -3.136,1.559 -5.266,4.242 -8.191,5.996 -0.285,0.172 -0.684,-0.075 -0.725,-0.383 -0.465,-3.447 2.695,-6.211 5.344,-7.833 1.54,-0.942 3.277,-1.942 5.085,-2.757 0.431,-0.331 0.853,-0.665 1.253,-1.011 2.985,-2.582 6.385,-4.684 8.998,-7.666 4.772,-5.447 4.991,-13.988 0.814,-19.652 -8.761,-11.883 -32.256,-16.481 -44.255,-24.553 -4.23,-2.846 -8.942,-10.047 -12.216,-13.85 -7.894,-9.166 -18.334,-11.819 -29.797,-14.014 -10.387,-1.986 -23.874,-6.841 -32.255,-13.525 -7.027,-5.607 -15.796,-29.198 -19.46,-32.428 -6.189,-5.455 -13.942,-7.928 -22.017,-8.851 -6.404,-0.731 -13.348,-0.244 -18.615,3.747 -4.499,3.409 -6.573,9.809 -8.123,14.969 -3.004,10.012 -3.986,22.553 -11.848,30.24 -2.881,2.816 -6.409,3.803 -10.167,3.873 -2.695,0.8 -6.025,0.677 -8.339,0.643 -5.628,-0.079 -11.073,-1.371 -16.668,-1.828 -7.671,-0.629 -12.807,3.024 -16.797,9.434 -3.074,4.935 -7.117,8.404 -12.43,10.751 -11.199,4.947 -26.968,3.643 -32.027,15.962 -5.716,13.92 -10.672,29.088 2.297,57.275 2.033,4.418 4.234,8.453 7.3,12.164 2.762,3.344 6.001,6.061 7.694,10.11 0.262,0.625 -0.306,1.272 -0.953,0.928 -7.004,-3.72 -17.233,-19.186 -25.129,-30.729 -5.162,-7.548 -4.508,-38.294 -0.439,-47.862 5.839,-13.728 17.703,-18.528 31.638,-20.406 7.578,-1.021 12.69,-3.471 17.636,-9.414 4.571,-5.494 6.245,-10.623 13.616,-12.891 5.398,-1.66 11.52,-0.298 16.86,0.873 1.069,0.235 2.146,0.477 3.226,0.712 2.978,0.267 5.941,0.624 8.938,0.821 2.238,-0.316 4.487,-0.857 6.567,-0.413 4.898,-1.46 7.785,-5.814 9.321,-11.256 3.113,-11.03 2.574,-22.894 7.958,-33.29 6.831,-13.191 21.273,-15.654 34.306,-12.755 7.578,1.685 15.762,4.76 20.989,10.537 2.515,2.779 4.56,7.746 6.005,11.199 4.609,11.002 5.596,21.463 16.108,27.992 9.89,6.143 20.036,8.811 31.267,10.282 8.506,1.115 17.559,2.183 24.053,8.415 3.993,3.831 6.625,8.444 9.517,13.096 6.849,11.014 28.83,17.731 35.307,20.403 7.034,2.9 13.96,6.342 18.193,12.984 C 5.202,-14.098 4.109,-6.605 0,0"
           style="fill:#4c0e0b;fill-opacity:1;fill-rule:nonzero;stroke:none"
           id="path4191" />
      </g>
      <g
         id="g4193"
         transform="translate(385.9121,580.5703)">
        <path
           d="m 0,0 c -6.31,-1.468 -11.393,-5.169 -16.997,-8.234 -3.38,-1.848 -7,-3.254 -10.849,-2.067 -4.186,1.291 -6.886,5.447 -8.665,9.168 -2.942,6.153 -6.348,24.295 -16.182,23.19 -0.289,-0.034 -0.541,-0.434 -0.251,-0.655 2.544,-1.931 4.698,-3.158 6.375,-6.052 1.72,-2.97 2.573,-6.495 3.538,-9.764 1.709,-5.794 3.302,-11.283 7.48,-15.802 12.117,-13.1 25.148,3.31 35.839,9.005 C 0.854,-0.91 0.758,0.176 0,0"
           style="fill:#4c0e0b;fill-opacity:1;fill-rule:nonzero;stroke:none"
           id="path4195" />
      </g>
      <g
         id="g4197"
         transform="translate(448.5732,624.3652)">
        <path
           d="m 0,0 c -9.392,0.107 -13.852,-8.357 -20.165,-13.828 -9.046,-7.838 -23.09,-5.871 -32.198,-13.986 -0.448,-0.399 0.003,-1.045 0.536,-0.854 5.596,2.004 10.953,3.889 16.769,5.224 5.235,1.2 10.455,2.333 15.047,5.222 3.365,2.117 5.994,5.425 8.584,8.375 3.368,3.837 7.118,6.353 11.786,8.387 C 1.193,-1.097 0.833,-0.01 0,0"
           style="fill:#4c0e0b;fill-opacity:1;fill-rule:nonzero;stroke:none"
           id="path4199" />
      </g>
      <g
         id="g4201"
         transform="translate(314.3398,627.1455)">
        <path
           d="m 0,0 c -5.809,4.96 -10.53,7.187 -17.204,11.001 -7.062,4.036 -14.513,7.088 -21.913,10.42 -6.254,2.814 -12.331,6.148 -17.272,10.971 -5.682,5.546 -7.535,12.655 -8.251,20.32 -0.112,1.193 -1.646,1.394 -2.057,0.266 -5.528,-15.149 6.265,-26.259 18.554,-32.717 7.207,-3.789 15.008,-6.232 22.509,-9.338 C -16.641,7.197 -8.031,1.995 0.098,-3.397 5.396,-6.913 0.643,-0.548 0,0"
           style="fill:#4c0e0b;fill-opacity:1;fill-rule:nonzero;stroke:none"
           id="path4203" />
      </g>
      <g
         id="g4205"
         transform="translate(309.2773,674.1621)">
        <path
           d="m 0,0 c -7.324,8.088 -14.103,12.272 -22.062,19.748 -8.503,7.987 -21.129,19.411 -31.67,24.492 -2.071,0.998 -2.612,-1.607 -0.895,-3.263 7.695,-7.434 17.771,-19.043 26.555,-25.164 C -18.615,9.221 -9.193,0.956 1.25,-3.979 5.617,-6.042 0.646,-0.717 0,0"
           style="fill:#4c0e0b;fill-opacity:1;fill-rule:nonzero;stroke:none"
           id="path4207" />
      </g>
      <g
         id="g4209"
         transform="translate(491.1074,707.4629)">
        <path
           d="m 0,0 c -5.877,-2.363 -10.969,-7.71 -16.348,-11.015 -6.557,-4.029 -13.132,-7.835 -19.959,-11.393 -13.017,-6.786 -25.108,-15.026 -37.433,-22.942 -0.885,-0.568 1.095,-1.986 2.09,-1.57 13.165,5.506 24.268,11.891 36.062,19.971 5.81,3.978 11.402,8.163 17.369,11.914 6.315,3.971 12.761,7.246 19.19,11.031 C 2.097,-3.341 0.875,0.352 0,0"
           style="fill:#4c0e0b;fill-opacity:1;fill-rule:nonzero;stroke:none"
           id="path4211" />
      </g>
      <g
         id="g4213"
         transform="translate(402.7354,655.4414)">
        <path
           d="m 0,0 c -7.456,-2.516 -10.566,-5.628 -15.468,-11.621 -2.15,-2.631 -4.193,-5.227 -6.007,-8.099 -2.292,-3.629 -6.213,-7.129 -11.107,-4.143 -5.394,3.291 -5.913,8.941 -10.741,12.851 -6.561,5.314 -20.656,13.332 -22.85,13.177 -4.794,-0.339 -0.855,-2.255 -0.252,-2.706 3.755,-2.813 7.949,-3.912 12.051,-6.162 4.662,-2.557 7.582,-5.985 10.316,-10.423 2.871,-4.659 5.83,-12.621 12.111,-13.569 7.09,-1.071 13.024,4.661 15.616,10.113 4.48,9.418 10.121,14.82 19.614,18.766 C 4.029,-1.506 3.973,1.34 0,0"
           style="fill:#4c0e0b;fill-opacity:1;fill-rule:nonzero;stroke:none"
           id="path4215" />
      </g>
      <g
         id="g4217"
         transform="translate(501.7158,676.1855)">
        <path
           d="m 0,0 c -0.366,0.811 -1.371,0.76 -1.785,0.036 -1.369,-2.395 -1.695,-4.431 -3.921,-6.295 -2.379,-1.993 -4.555,-4.189 -6.995,-6.122 -4.571,-3.617 -9.306,-6.992 -13.849,-10.627 -0.608,-0.486 0.043,-1.457 0.694,-1.002 5.855,4.096 12.792,5.832 18.621,9.886 C -3.449,-11.49 2.278,-5.04 0,0"
           style="fill:#4c0e0b;fill-opacity:1;fill-rule:nonzero;stroke:none"
           id="path4219" />
      </g>
      <g
         id="g4221"
         transform="translate(339.1289,773.9385)">
        <path
           d="m 0,0 c 0,0 33.871,20.737 44.747,18.36 10.876,-2.375 94.327,-70.359 100.868,-78.303 6.54,-7.945 -65.55,-37.839 -65.55,-37.839 0,0 59.109,33.301 46.456,41.246 C 113.869,-48.589 50.684,15.21 39.602,11.306 18.003,3.696 0,0 0,0"
           style="fill:#f7eac3;fill-opacity:1;fill-rule:nonzero;stroke:none"
           id="path4223" />
      </g>
      <g
         id="g4225"
         transform="translate(372.4922,617.9453)">
        <path
           d="m 0,0 c -5.329,-3.111 -10.113,-9.248 -12.075,-15.057 -1.473,-4.359 -1.356,-13.666 4.892,-14.216 0.638,-0.057 1.37,0.403 1.249,1.138 -1.457,8.899 -0.043,20.381 6.964,26.936 C 1.722,-0.552 0.745,0.436 0,0"
           style="fill:#4c0e0b;fill-opacity:1;fill-rule:nonzero;stroke:none"
           id="path4227" />
      </g>
      <g
         id="g4229"
         transform="translate(332.3047,680.5059)">
        <path
           d="m 0,0 c -9.047,9.788 -15.578,20.448 -29.098,24.389 -6.545,1.908 -11.011,5.66 -15.754,10.408 -3.662,3.667 -7.741,8.979 -13.349,9.236 -1.049,0.047 -2.061,-0.873 -2.04,-1.943 0.11,-5.781 4.872,-11.342 8.108,-15.766 3.77,-5.154 8.823,-8.819 14.511,-11.586 6.896,-3.353 14.316,-0.068 20.909,-4.095 C -11.262,7.312 -7.069,1.829 -1.87,-1.943 -0.648,-2.829 1.072,-1.16 0,0"
           style="fill:#f5e8c2;fill-opacity:1;fill-rule:nonzero;stroke:none"
           id="path4231" />
      </g>
      <g
         id="g4233"
         transform="translate(519.5693,670.4062)">
        <path
           d="m 0,0 c -2.023,3.854 -5.135,5.312 -9.356,5.926 -1.481,0.215 -1.995,-1.942 -0.508,-2.289 7.806,-1.824 7.24,-8.443 5.672,-14.778 -1.45,-5.857 -7.689,-9.54 -12.961,-11.347 -1.578,-0.541 -1.071,-2.554 0.434,-2.708 9.37,-0.959 17.077,4.461 19.173,13.697 C 3.379,-7.428 1.862,-3.546 0,0"
           style="fill:#f5e8c2;fill-opacity:1;fill-rule:nonzero;stroke:none"
           id="path4235" />
      </g>
    </g>
  </g>
</svg>
